<svg width="14" height="10" viewBox="0 0 14 10" fill="none" xmlns="http://www.w3.org/2000/svg">
<path d="M5.66616 9.72989C5.5349 9.73016 5.40487 9.7045 5.28355 9.6544C5.16222 9.60429 5.05198 9.53071 4.95916 9.43789L0.717164 5.19489C0.621591 5.10271 0.545332 4.99242 0.492839 4.87046C0.440345 4.74849 0.412668 4.61729 0.411421 4.48451C0.410174 4.35174 0.435383 4.22004 0.485577 4.09711C0.535771 3.97418 0.609945 3.86248 0.70377 3.76852C0.797596 3.67456 0.909194 3.60023 1.03205 3.54986C1.15491 3.49949 1.28657 3.4741 1.41935 3.47516C1.55213 3.47622 1.68337 3.50371 1.80541 3.55603C1.92745 3.60835 2.03785 3.68445 2.13016 3.77989L5.66516 7.31489L12.0302 0.951894C12.2177 0.764254 12.472 0.658785 12.7373 0.658691C13.0026 0.658598 13.257 0.763886 13.4447 0.951394C13.6323 1.1389 13.7378 1.39327 13.7379 1.65854C13.738 1.92381 13.6327 2.17825 13.4452 2.36589L6.37316 9.43789C6.28034 9.53071 6.17011 9.60429 6.04878 9.6544C5.92746 9.7045 5.79743 9.73016 5.66616 9.72989Z" fill="#2FAB73"/>
</svg>
