<svg width="64" height="67" viewBox="0 0 64 67" fill="none" xmlns="http://www.w3.org/2000/svg">
<path d="M37.2012 1.84371L61.0699 17.755C61.5835 18.0974 62.0046 18.5614 62.2959 19.1056C62.5871 19.6499 62.7395 20.2577 62.7395 20.875C62.7395 21.4923 62.5871 22.1 62.2959 22.6443C62.0046 23.1885 61.5835 23.6525 61.0699 23.995L37.2012 39.91C35.661 40.937 33.8512 41.4851 31.9999 41.4851C30.1487 41.4851 28.3389 40.937 26.7987 39.91L2.92994 23.995C2.41635 23.6525 1.99524 23.1885 1.70399 22.6443C1.41274 22.1 1.26035 21.4923 1.26035 20.875C1.26035 20.2577 1.41274 19.6499 1.70399 19.1056C1.99524 18.5614 2.41635 18.0974 2.92994 17.755L26.7987 1.84371C28.3389 0.816638 30.1487 0.268555 31.9999 0.268555C33.8512 0.268555 35.661 0.816638 37.2012 1.84371ZM62.0974 34.72C61.541 35.6106 60.8038 36.3745 59.9337 36.9625L37.2462 52.2775C35.6966 53.3237 33.8696 53.8828 31.9999 53.8828C30.1302 53.8828 28.3032 53.3237 26.7537 52.2775L4.06619 36.9625C2.70834 36.0464 1.6877 34.7111 1.1602 33.1604C0.632701 31.6097 0.62734 29.929 1.14494 28.375L26.7987 45.475C28.2389 46.4347 29.9167 46.9771 31.6462 47.0419C33.3757 47.1068 35.0894 46.6916 36.5974 45.8425L37.1974 45.475L62.8512 28.375C63.2016 29.4227 63.3157 30.5349 63.1854 31.6319C63.0551 32.7289 62.6835 33.7835 62.0974 34.72ZM62.0974 46.9075C61.541 47.7981 60.8038 48.562 59.9337 49.15L37.2462 64.465C35.6966 65.5113 33.8696 66.0703 31.9999 66.0703C30.1302 66.0703 28.3032 65.5113 26.7537 64.465L4.06619 49.15C2.70834 48.2339 1.6877 46.8986 1.1602 45.3479C0.632701 43.7972 0.62734 42.1165 1.14494 40.5625L26.7987 57.6625C28.2389 58.6222 29.9167 59.1646 31.6462 59.2294C33.3757 59.2943 35.0894 58.8791 36.5974 58.03L37.1974 57.6625L62.8512 40.5625C63.2016 41.6102 63.3157 42.7224 63.1854 43.8194C63.0551 44.9164 62.6835 45.971 62.0974 46.9075Z" fill="url(#paint0_linear_1_192)"/>
<defs>
<linearGradient id="paint0_linear_1_192" x1="35.2286" y1="-10.5507" x2="29.1679" y2="77.9607" gradientUnits="userSpaceOnUse">
<stop stop-color="#2161D5"/>
<stop offset="1" stop-color="#5C92F3"/>
</linearGradient>
</defs>
</svg>
