<svg width="454" height="399" viewBox="0 0 454 399" fill="none" xmlns="http://www.w3.org/2000/svg">
<circle cx="235.5" cy="199.5" r="199.5" fill="white" fill-opacity="0.3"/>
<g clip-path="url(#clip0_3_692)">
<path d="M0.5923 323.772C2.39083 309.303 11.3538 295.047 25.1464 290.339C19.707 305.231 19.7082 321.569 25.1497 336.46C27.2691 342.196 30.2233 348.354 28.2298 354.135C26.9894 357.732 23.955 360.483 20.5631 362.204C17.171 363.925 13.4065 364.745 9.68916 365.549L8.95756 366.154C3.05626 352.823 -1.20623 338.241 0.5923 323.772Z" fill="#F0F0F0"/>
<path d="M25.283 290.612C17.2508 299.616 12.2586 310.923 11.0153 322.927C10.7019 325.507 10.7967 328.12 11.2965 330.669C11.8635 333.138 13.0809 335.409 14.822 337.247C16.4111 338.994 18.2387 340.596 19.3756 342.699C19.9417 343.784 20.272 344.977 20.3451 346.198C20.4182 347.42 20.2323 348.643 19.7997 349.788C18.7958 352.668 16.8173 355.016 14.8028 357.245C12.566 359.719 10.2035 362.254 9.25272 365.535C9.13752 365.932 8.52776 365.73 8.64279 365.333C10.297 359.626 15.8352 356.384 18.4763 351.243C19.7087 348.844 20.226 346.059 19.0706 343.527C18.0603 341.313 16.1771 339.659 14.5529 337.904C12.828 336.135 11.5623 333.971 10.8661 331.601C10.2382 329.085 10.0429 326.48 10.2885 323.898C10.7488 318.077 12.1211 312.364 14.3551 306.969C16.8706 300.798 20.4228 295.103 24.858 290.13C25.1326 289.823 25.5558 290.307 25.283 290.612V290.612Z" fill="white"/>
<path d="M11.1886 319.039C9.20377 318.556 7.45489 317.384 6.25425 315.731C5.05361 314.078 4.47939 312.052 4.63414 310.014C4.66686 309.602 5.30859 309.634 5.27582 310.047C5.12821 311.944 5.66329 313.831 6.78447 315.368C7.90565 316.905 9.53908 317.99 11.3899 318.428C11.7921 318.524 11.5884 319.134 11.1886 319.039Z" fill="white"/>
<path d="M13.8996 336.468C17.4844 334.326 20.1307 330.912 21.3109 326.905C21.4275 326.508 22.0373 326.71 21.9208 327.107C20.6849 331.274 17.9238 334.822 14.1885 337.042C13.8324 337.253 13.5454 336.678 13.8996 336.468H13.8996Z" fill="white"/>
<path d="M17.4666 301.407C18.1957 301.754 18.9994 301.914 19.8057 301.873C20.6119 301.832 21.3953 301.591 22.0856 301.173C22.4389 300.957 22.7255 301.532 22.3744 301.747C21.6096 302.206 20.7441 302.47 19.8535 302.517C18.9628 302.565 18.0742 302.393 17.2652 302.017C17.186 301.988 17.1208 301.93 17.0828 301.855C17.0449 301.779 17.0371 301.692 17.0609 301.612C17.088 301.531 17.1458 301.464 17.2218 301.426C17.2977 301.388 17.3857 301.381 17.4666 301.407Z" fill="white"/>
<path d="M67.1882 316.182C66.9714 316.323 66.7546 316.464 66.5376 316.61C63.6328 318.521 60.888 320.665 58.3303 323.021C58.1297 323.2 57.929 323.384 57.7339 323.569C51.6323 329.31 46.6491 336.134 43.0376 343.695C41.6033 346.705 40.3999 349.82 39.438 353.013C38.1097 357.422 37.0202 362.309 34.391 365.915C34.1209 366.295 33.8276 366.657 33.5127 367H9.75232C9.69832 366.973 9.64406 366.951 9.58979 366.924L8.64111 366.967C8.67923 366.799 8.72237 366.626 8.76049 366.458C8.78218 366.36 8.8092 366.262 8.8309 366.165C8.84705 366.1 8.86346 366.035 8.87431 365.975C8.8796 365.953 8.88516 365.931 8.89046 365.915C8.9013 365.856 8.91773 365.801 8.92858 365.747C9.16708 364.776 9.4128 363.805 9.66576 362.835C9.66576 362.829 9.66576 362.829 9.67106 362.824C11.6174 355.432 14.1977 348.137 17.8026 341.466C17.9111 341.266 18.0194 341.059 18.1388 340.859C19.7804 337.861 21.6641 335.002 23.7713 332.311C24.9298 330.842 26.162 329.432 27.463 328.087C30.8314 324.618 34.7243 321.7 38.9989 319.441C47.5209 314.94 57.387 313.215 66.4944 315.965C66.7273 316.036 66.9553 316.106 67.1882 316.182Z" fill="#F0F0F0"/>
<path d="M67.1347 316.484C55.3029 318.835 44.5124 324.856 36.2958 333.691C34.4932 335.562 32.9966 337.705 31.8611 340.042C30.8285 342.355 30.4336 344.901 30.7176 347.418C30.9352 349.77 31.43 352.15 31.0724 354.514C30.8714 355.721 30.4176 356.872 29.7408 357.891C29.0639 358.911 28.1793 359.776 27.145 360.429C24.61 362.124 21.6174 362.807 18.6676 363.373C15.3925 364.002 11.9808 364.603 9.24734 366.649C8.91615 366.897 8.5509 366.369 8.88159 366.121C13.6373 362.56 20.0102 363.308 25.2128 360.794C27.6404 359.621 29.7293 357.709 30.3307 354.991C30.8566 352.614 30.3484 350.159 30.1075 347.78C29.7945 345.329 30.0862 342.839 30.957 340.527C31.9699 338.139 33.3815 335.942 35.1313 334.029C39.002 329.658 43.5355 325.923 48.5658 322.962C54.2881 319.549 60.5516 317.142 67.0854 315.843C67.4898 315.763 67.5365 316.404 67.1347 316.484H67.1347Z" fill="white"/>
<path d="M38.774 330.691C37.4794 329.11 36.7884 327.121 36.8246 325.078C36.8607 323.035 37.6216 321.071 38.9713 319.537C39.2455 319.228 39.7389 319.64 39.4644 319.95C38.2049 321.375 37.4963 323.205 37.4665 325.107C37.4368 327.01 38.0878 328.86 39.302 330.325C39.5655 330.643 39.036 331.007 38.774 330.691H38.774Z" fill="white"/>
<path d="M30.4504 346.24C34.6013 346.69 38.7691 345.557 42.1226 343.069C42.4547 342.822 42.82 343.351 42.4884 343.597C38.9938 346.18 34.6542 347.35 30.3356 346.872C29.924 346.827 30.041 346.195 30.4504 346.24Z" fill="white"/>
<path d="M54.3976 320.395C54.7711 321.11 55.3166 321.722 55.9849 322.175C56.6533 322.628 57.4236 322.908 58.2267 322.989C58.6387 323.03 58.5213 323.662 58.112 323.622C57.2251 323.528 56.3747 323.218 55.6352 322.719C54.8956 322.22 54.2895 321.548 53.8696 320.76C53.8238 320.69 53.8067 320.604 53.8217 320.521C53.8368 320.438 53.8829 320.364 53.9507 320.313C54.0209 320.265 54.1072 320.247 54.1908 320.262C54.2745 320.277 54.3488 320.325 54.3976 320.395Z" fill="white"/>
<path d="M403.351 36.2856C383.726 15.4404 356.711 3.12993 328.11 2V111.56L403.351 36.2856Z" fill="#3F3D56"/>
<path d="M403.351 49.9272L328.11 125.202H433.261C433.298 97.2033 422.592 70.2587 403.351 49.9272Z" fill="#E4E4E4"/>
<path d="M433.373 133.074C433.377 139.903 432.746 146.717 431.486 153.429C431.389 153.96 431.286 154.486 431.177 155.012C428.803 166.72 424.517 177.956 418.492 188.269C418.172 188.822 417.841 189.376 417.511 189.918V189.923C411.573 199.698 404.147 208.487 395.501 215.972C395.073 216.347 394.645 216.715 394.211 217.079C375.632 232.717 352.37 241.71 328.107 242.634V133.074H433.373Z" fill="#F0F0F0"/>
<path d="M317.473 242.73C318.928 242.73 320.375 242.693 321.817 242.637V133.072L242.173 212.752C262.502 232.035 289.459 242.767 317.473 242.73Z" fill="#CACACA"/>
<path d="M317.621 15.5439C257.086 15.5439 208.013 64.6395 208.013 125.202H322.079V15.6417C320.6 15.5825 319.115 15.5439 317.621 15.5439Z" fill="url(#paint0_linear_3_692)"/>
<path d="M291.472 133.074L268.427 156.13L267.674 156.884L267.657 156.9L247.562 176.999L246.797 177.764L225.086 199.485L224.322 200.25V200.255L211.826 212.751C200.976 202.515 192.335 190.165 186.435 176.463C180.534 162.76 177.499 147.994 177.517 133.074H291.472Z" fill="url(#paint1_linear_3_692)"/>
<path d="M112.688 232.875C113.526 232.367 114.243 231.68 114.788 230.864C115.332 230.048 115.691 229.122 115.839 228.152C115.988 227.182 115.922 226.191 115.646 225.25C115.37 224.308 114.891 223.438 114.243 222.702L115.148 173.383L104.344 174.288L104.369 222.37C103.205 223.541 102.51 225.099 102.417 226.748C102.324 228.398 102.839 230.024 103.864 231.319C104.89 232.614 106.354 233.488 107.98 233.775C109.607 234.061 111.281 233.742 112.688 232.875Z" fill="#FFB6B6"/>
<path d="M116.851 185.455L102.721 184.107C102.319 184.069 101.93 183.944 101.581 183.742C101.231 183.54 100.929 183.264 100.696 182.935C100.462 182.605 100.302 182.229 100.227 181.832C100.152 181.435 100.163 181.027 100.26 180.634L103.653 166.89C103.861 164.834 104.875 162.943 106.474 161.634C108.073 160.324 110.125 159.703 112.182 159.905C114.238 160.107 116.13 161.117 117.443 162.713C118.757 164.309 119.384 166.36 119.187 168.418L119.924 182.51C119.945 182.914 119.879 183.317 119.73 183.693C119.581 184.068 119.353 184.407 119.061 184.687C118.77 184.966 118.421 185.18 118.04 185.312C117.658 185.445 117.253 185.494 116.851 185.455H116.851Z" fill="#E4E4E4"/>
<path d="M93.3507 361.193H98.833L101.441 340.037L93.3496 340.037L93.3507 361.193Z" fill="#FFB6B6"/>
<path d="M91.9521 359.402L102.749 359.402H102.75C104.574 359.402 106.324 360.127 107.615 361.418C108.905 362.709 109.63 364.46 109.63 366.286V366.509L91.9525 366.51L91.9521 359.402Z" fill="#2F2E41"/>
<path d="M143.883 361.193H149.366L151.974 340.037L143.882 340.037L143.883 361.193Z" fill="#FFB6B6"/>
<path d="M142.484 359.402L153.281 359.402H153.282C155.107 359.402 156.857 360.127 158.147 361.418C159.437 362.709 160.162 364.46 160.162 366.286V366.509L142.485 366.51L142.484 359.402Z" fill="#2F2E41"/>
<path d="M137.264 191.229L140.841 214.047L106.854 214.494L111.326 192.572L137.264 191.229Z" fill="#FFB6B6"/>
<path d="M140.101 209.137C150.886 227.931 151.806 291.655 152.268 357.473H143.1L121.188 261.461L101.064 354.966H92.1206L98.3813 249.829C98.3813 249.829 96.535 228.727 105.983 216.275L108.283 209.627L140.101 209.137Z" fill="#2F2E41"/>
<path d="M112.492 203.831C112.294 203.831 112.096 203.811 111.902 203.773C111.247 203.642 110.654 203.3 110.212 202.8C109.769 202.3 109.503 201.668 109.453 201.003C109.117 196.398 107.452 188.382 104.503 177.178C103.507 173.37 103.728 169.346 105.133 165.67C106.539 161.994 109.059 158.85 112.341 156.679C115.622 154.507 119.501 153.418 123.432 153.563C127.364 153.709 131.151 155.081 134.264 157.488C136.257 159.016 137.92 160.931 139.154 163.118C140.387 165.306 141.166 167.72 141.442 170.217C142.908 183.13 140.144 196.095 138.888 201.07C138.723 201.719 138.35 202.296 137.826 202.713C137.301 203.13 136.655 203.364 135.985 203.378L112.558 203.83C112.536 203.831 112.514 203.831 112.492 203.831Z" fill="#E4E4E4"/>
<path d="M177.945 162.406C177.804 162.722 177.689 163.049 177.599 163.383L148.274 173.352L142.608 168.399L134.02 175.978L143.199 185.721C143.941 186.508 144.918 187.033 145.983 187.217C147.048 187.402 148.145 187.236 149.107 186.743L180.487 170.708C181.622 171.404 182.941 171.738 184.271 171.666C185.6 171.594 186.876 171.118 187.928 170.303C188.981 169.487 189.76 168.371 190.163 167.101C190.566 165.832 190.572 164.47 190.183 163.196C189.793 161.923 189.024 160.798 187.98 159.972C186.936 159.146 185.665 158.658 184.336 158.572C183.008 158.486 181.685 158.807 180.543 159.492C179.401 160.177 178.495 161.194 177.945 162.406Z" fill="#FFB6B6"/>
<path d="M147.252 173.897L136.562 183.238C136.258 183.504 135.9 183.701 135.513 183.816C135.126 183.931 134.718 183.961 134.319 183.904C133.919 183.847 133.536 183.705 133.196 183.487C132.856 183.269 132.567 182.98 132.349 182.64L124.702 170.728C123.352 169.163 122.677 167.127 122.825 165.065C122.973 163.003 123.932 161.084 125.493 159.728C127.053 158.373 129.087 157.692 131.148 157.835C133.209 157.977 135.13 158.932 136.489 160.489L147.226 169.639C147.534 169.902 147.781 170.227 147.952 170.593C148.122 170.96 148.211 171.358 148.214 171.762C148.216 172.166 148.132 172.566 147.966 172.934C147.8 173.303 147.556 173.631 147.252 173.897Z" fill="#E4E4E4"/>
<path d="M132.893 143.176C136.7 136.209 134.141 127.474 127.177 123.665C120.213 119.857 111.482 122.417 107.675 129.384C103.868 136.351 106.428 145.086 113.391 148.895C120.355 152.703 129.086 150.143 132.893 143.176Z" fill="#FFB6B6"/>
<path d="M124.24 116.381H121.326C119.927 115.943 118.47 115.721 117.005 115.723C116.763 115.723 116.523 115.729 116.284 115.741C113.56 115.912 110.955 116.921 108.825 118.629C106.695 120.338 105.145 122.662 104.385 125.285C101.126 136.166 102.534 148.205 102.534 148.205C107.289 150.357 114.558 151.949 125.293 150.64L126.871 144.02L126.74 150.443C128.253 150.232 129.831 149.96 131.476 149.627V135.465H138.053C138.053 124.923 134.778 116.381 124.24 116.381Z" fill="#2F2E41"/>
<path d="M452.645 243.345H246.104C245.96 243.345 245.822 243.288 245.72 243.186C245.619 243.084 245.562 242.946 245.562 242.802C245.562 242.659 245.619 242.521 245.72 242.419C245.822 242.317 245.96 242.26 246.104 242.26H452.645C452.788 242.26 452.926 242.317 453.028 242.419C453.13 242.521 453.187 242.659 453.187 242.802C453.187 242.946 453.13 243.084 453.028 243.186C452.926 243.288 452.788 243.345 452.645 243.345Z" fill="#F0F0F0"/>
<path d="M452.916 312.494V105.859C452.916 105.716 452.973 105.578 453.075 105.476C453.176 105.374 453.314 105.317 453.458 105.317C453.602 105.317 453.74 105.374 453.841 105.476C453.943 105.578 454 105.716 454 105.859V312.494C454 312.638 453.943 312.776 453.841 312.877C453.74 312.979 453.602 313.036 453.458 313.036C453.314 313.036 453.176 312.979 453.075 312.877C452.973 312.776 452.916 312.638 452.916 312.494Z" fill="#F0F0F0"/>
<path d="M422.016 271.005C426.806 271.005 430.69 267.119 430.69 262.327C430.69 257.534 426.806 253.649 422.016 253.649C417.226 253.649 413.342 257.534 413.342 262.327C413.342 267.119 417.226 271.005 422.016 271.005Z" fill="#F0F0F0"/>
<path d="M211.138 26.4057C215.928 26.4057 219.812 22.5206 219.812 17.7281C219.812 12.9356 215.928 9.05054 211.138 9.05054C206.348 9.05054 202.464 12.9356 202.464 17.7281C202.464 22.5206 206.348 26.4057 211.138 26.4057Z" fill="#F0F0F0"/>
<path d="M207.625 366.458C207.625 366.529 207.612 366.6 207.584 366.665C207.557 366.731 207.517 366.791 207.467 366.842C207.417 366.892 207.357 366.932 207.291 366.959C207.225 366.986 207.154 367 207.083 367H0.542102C0.398328 367 0.260442 366.943 0.158778 366.841C0.0571138 366.739 0 366.601 0 366.458C0 366.314 0.0571138 366.176 0.158778 366.074C0.260442 365.972 0.398328 365.915 0.542102 365.915H207.083C207.154 365.915 207.225 365.929 207.291 365.956C207.357 365.983 207.417 366.023 207.467 366.074C207.517 366.124 207.557 366.184 207.584 366.25C207.612 366.316 207.625 366.386 207.625 366.458Z" fill="#CACACA"/>
<path d="M224.322 200.254C206.338 182.435 195.829 158.421 194.941 133.114L197.108 133.036C197.977 157.793 208.257 181.284 225.851 198.716L224.322 200.254Z" fill="#3F3D56"/>
<path d="M247.584 177.021L246.012 178.507C234.031 165.851 225.575 150.274 221.487 133.329L222.539 133.074H223.655C227.676 149.545 235.916 164.683 247.562 176.999L247.584 177.021Z" fill="#3F3D56"/>
<path d="M268.487 156.206L267.674 156.884L267.657 156.9L266.823 157.594C260.74 150.315 255.727 142.205 251.937 133.508L252.929 133.074H254.116C257.788 141.39 262.605 149.15 268.428 156.13C268.446 156.156 268.466 156.182 268.487 156.206Z" fill="#3F3D56"/>
</g>
<defs>
<linearGradient id="paint0_linear_3_692" x1="270.942" y1="-2.48614" x2="261.716" y2="145.132" gradientUnits="userSpaceOnUse">
<stop stop-color="#2161D5"/>
<stop offset="1" stop-color="#5C92F3"/>
</linearGradient>
<linearGradient id="paint1_linear_3_692" x1="240.385" y1="119.974" x2="235.5" y2="227.429" gradientUnits="userSpaceOnUse">
<stop stop-color="#2161D5"/>
<stop offset="1" stop-color="#5C92F3"/>
</linearGradient>
<clipPath id="clip0_3_692">
<rect width="454" height="365" fill="white" transform="translate(0 2)"/>
</clipPath>
</defs>
</svg>
