<svg width="132" height="30" viewBox="0 0 132 30" fill="none" xmlns="http://www.w3.org/2000/svg">
<g clip-path="url(#clip0_1_1572)">
<path d="M2.17055 1.12207H4.91055C6.35473 1.12207 7.52547 2.29281 7.52547 3.73699V3.73699V3.73699C7.52547 5.95679 7.03539 8.14921 6.0902 10.1577L4.82884 12.8381L2.81673 17.8737C1.93918 20.0699 0.90731 22.4271 1.49637 24.7176V24.7176V24.7176C2.022 26.7614 4.14677 28.1683 6.24244 28.4164C6.28092 28.421 6.31987 28.4254 6.3593 28.4296C7.83254 28.5858 8.82663 28.5515 9.77579 28.4429C10.9321 28.3104 12.4058 27.5667 13.4464 27.0455V27.0455C14.9044 26.3151 16.1847 26.4928 17.7157 27.0541C18.5827 27.372 19.5978 27.7453 20.6031 28.1177C21.8216 28.5691 23.3848 28.8322 24.6265 28.4493V28.4493C24.8294 28.3868 24.7873 28.3907 24.9818 28.3058C25.5382 28.0629 26.7427 27.4981 27.3075 26.9333C27.7235 26.5172 28.1395 25.8699 28.4269 25.3772C28.6904 24.9253 28.7813 24.8569 28.9023 24.348V24.348C29.1185 23.4391 28.807 22.0842 28.4796 21.2091C27.6053 18.8719 27.0332 17.4741 25.9345 14.9423C25.3063 13.4947 24.4802 11.6811 23.78 10.1634C22.8502 8.14779 22.3569 5.95671 22.3569 3.73699V3.73699V3.73699C22.3569 2.29281 23.5277 1.12207 24.9719 1.12207H27.2829" stroke="#3476F2" stroke-width="3.6044"/>
<path fill-rule="evenodd" clip-rule="evenodd" d="M18.0411 19.5377L14.9098 22.669L12.4122 20.1713L10.2908 22.2927L12.7885 24.7903L14.9098 26.9116L17.0311 24.7903L20.1624 21.659C23.0633 18.758 23.0633 14.0547 20.1624 11.1537C17.2615 8.25279 12.5581 8.25279 9.65715 11.1537C7.16755 13.6433 6.81453 17.4605 8.59812 20.3265L10.8191 18.1055C10.1528 16.4995 10.4726 14.581 11.7785 13.2751C13.5078 11.5457 16.3117 11.5457 18.0411 13.2751C19.7705 15.0044 19.7705 17.8083 18.0411 19.5377Z" fill="#3476F2"/>
<path d="M14.741 18.2598C15.858 18.2598 16.7635 17.3543 16.7635 16.2373C16.7635 15.1203 15.858 14.2148 14.741 14.2148C13.624 14.2148 12.7185 15.1203 12.7185 16.2373C12.7185 17.3543 13.624 18.2598 14.741 18.2598Z" fill="#3476F2"/>
</g>
<path d="M45.6742 22.2C44.4475 22.2 43.4009 21.9867 42.5342 21.56C41.6809 21.1333 41.0142 20.52 40.5342 19.72C40.0675 18.9067 39.8142 17.94 39.7742 16.82C39.7609 16.2467 39.7542 15.6333 39.7542 14.98C39.7542 14.3133 39.7609 13.6867 39.7742 13.1C39.8142 11.9933 40.0675 11.0467 40.5342 10.26C41.0142 9.47333 41.6875 8.86667 42.5542 8.44C43.4342 8.01333 44.4742 7.8 45.6742 7.8C46.6475 7.8 47.5009 7.93333 48.2342 8.2C48.9675 8.45333 49.5742 8.78667 50.0542 9.2C50.5475 9.6 50.9142 10.0333 51.1542 10.5C51.4075 10.9667 51.5409 11.4 51.5542 11.8C51.5675 11.92 51.5342 12.02 51.4542 12.1C51.3742 12.18 51.2675 12.22 51.1342 12.22H49.0742C48.9409 12.22 48.8409 12.1933 48.7742 12.14C48.7075 12.0867 48.6475 12.0067 48.5942 11.9C48.4875 11.62 48.3209 11.3467 48.0942 11.08C47.8675 10.8 47.5609 10.5667 47.1742 10.38C46.7875 10.1933 46.2875 10.1 45.6742 10.1C44.7675 10.1 44.0409 10.34 43.4942 10.82C42.9609 11.3 42.6742 12.0933 42.6342 13.2C42.5942 14.36 42.5942 15.5333 42.6342 16.72C42.6742 17.8533 42.9675 18.6667 43.5142 19.16C44.0742 19.6533 44.8075 19.9 45.7142 19.9C46.3142 19.9 46.8475 19.7933 47.3142 19.58C47.7942 19.3667 48.1675 19.0333 48.4342 18.58C48.7142 18.1267 48.8542 17.5467 48.8542 16.84V16.22H46.4142C46.2809 16.22 46.1675 16.1733 46.0742 16.08C45.9809 15.9867 45.9342 15.8667 45.9342 15.72V14.66C45.9342 14.5133 45.9809 14.3933 46.0742 14.3C46.1675 14.2067 46.2809 14.16 46.4142 14.16H51.1942C51.3409 14.16 51.4542 14.2067 51.5342 14.3C51.6275 14.3933 51.6742 14.5133 51.6742 14.66V16.76C51.6742 17.88 51.4275 18.8467 50.9342 19.66C50.4542 20.4733 49.7609 21.1 48.8542 21.54C47.9609 21.98 46.9009 22.2 45.6742 22.2ZM54.7181 22C54.5848 22 54.4714 21.9533 54.3781 21.86C54.2848 21.7667 54.2381 21.6533 54.2381 21.52V8.5C54.2381 8.35333 54.2848 8.23333 54.3781 8.14C54.4714 8.04667 54.5848 8 54.7181 8H63.5181C63.6648 8 63.7848 8.04667 63.8781 8.14C63.9714 8.23333 64.0181 8.35333 64.0181 8.5V9.82C64.0181 9.95333 63.9714 10.0667 63.8781 10.16C63.7848 10.2533 63.6648 10.3 63.5181 10.3H56.9381V13.84H63.0781C63.2248 13.84 63.3448 13.8867 63.4381 13.98C63.5314 14.06 63.5781 14.1733 63.5781 14.32V15.56C63.5781 15.7067 63.5314 15.8267 63.4381 15.92C63.3448 16 63.2248 16.04 63.0781 16.04H56.9381V19.7H63.6781C63.8248 19.7 63.9448 19.7467 64.0381 19.84C64.1314 19.9333 64.1781 20.0533 64.1781 20.2V21.52C64.1781 21.6533 64.1314 21.7667 64.0381 21.86C63.9448 21.9533 63.8248 22 63.6781 22H54.7181ZM71.9423 22.2C70.7557 22.2 69.7357 22.0067 68.8823 21.62C68.029 21.22 67.3623 20.6133 66.8823 19.8C66.4023 18.9733 66.1423 17.9467 66.1023 16.72C66.089 16.1467 66.0823 15.58 66.0823 15.02C66.0823 14.46 66.089 13.8867 66.1023 13.3C66.1423 12.0867 66.409 11.0733 66.9023 10.26C67.3957 9.44667 68.069 8.83333 68.9223 8.42C69.789 8.00667 70.7957 7.8 71.9423 7.8C73.089 7.8 74.0957 8.00667 74.9623 8.42C75.829 8.83333 76.509 9.44667 77.0023 10.26C77.4957 11.0733 77.7623 12.0867 77.8023 13.3C77.829 13.8867 77.8423 14.46 77.8423 15.02C77.8423 15.58 77.829 16.1467 77.8023 16.72C77.7623 17.9467 77.5023 18.9733 77.0223 19.8C76.5423 20.6133 75.869 21.22 75.0023 21.62C74.149 22.0067 73.129 22.2 71.9423 22.2ZM71.9423 19.9C72.809 19.9 73.5157 19.6467 74.0623 19.14C74.609 18.62 74.9023 17.78 74.9423 16.62C74.969 16.0333 74.9823 15.4933 74.9823 15C74.9823 14.4933 74.969 13.9533 74.9423 13.38C74.9157 12.6067 74.769 11.98 74.5023 11.5C74.249 11.0067 73.9023 10.6533 73.4623 10.44C73.0223 10.2133 72.5157 10.1 71.9423 10.1C71.3823 10.1 70.8823 10.2133 70.4423 10.44C70.0023 10.6533 69.649 11.0067 69.3823 11.5C69.129 11.98 68.989 12.6067 68.9623 13.38C68.949 13.9533 68.9423 14.4933 68.9423 15C68.9423 15.4933 68.949 16.0333 68.9623 16.62C69.0023 17.78 69.2957 18.62 69.8423 19.14C70.389 19.6467 71.089 19.9 71.9423 19.9ZM80.9486 22C80.8152 22 80.7019 21.9533 80.6086 21.86C80.5152 21.7667 80.4686 21.6533 80.4686 21.52V8.48C80.4686 8.34667 80.5152 8.23333 80.6086 8.14C80.7019 8.04667 80.8152 8 80.9486 8H82.8086C82.9419 8 83.0552 8.04667 83.1486 8.14C83.2419 8.23333 83.2886 8.34667 83.2886 8.48V19.62H89.6286C89.7752 19.62 89.8952 19.6667 89.9886 19.76C90.0819 19.8533 90.1286 19.9733 90.1286 20.12V21.52C90.1286 21.6533 90.0819 21.7667 89.9886 21.86C89.8952 21.9533 89.7752 22 89.6286 22H80.9486ZM91.2101 22C91.1035 22 91.0035 21.96 90.9101 21.88C90.8301 21.8 90.7901 21.7 90.7901 21.58C90.7901 21.5267 90.8035 21.4667 90.8301 21.4L95.6501 8.5C95.6901 8.36667 95.7635 8.25333 95.8701 8.16C95.9901 8.05333 96.1501 8 96.3501 8H98.5301C98.7301 8 98.8835 8.05333 98.9901 8.16C99.0968 8.25333 99.1768 8.36667 99.2301 8.5L104.05 21.4C104.063 21.4667 104.07 21.5267 104.07 21.58C104.07 21.7 104.03 21.8 103.95 21.88C103.87 21.96 103.777 22 103.67 22H101.93C101.743 22 101.603 21.96 101.51 21.88C101.43 21.7867 101.377 21.7 101.35 21.62L100.41 19.18H94.4701L93.5301 21.62C93.5035 21.7 93.4435 21.7867 93.3501 21.88C93.2701 21.96 93.1368 22 92.9501 22H91.2101ZM95.1701 16.88H99.7101L97.4301 10.7L95.1701 16.88ZM106.417 22C106.284 22 106.171 21.9533 106.077 21.86C105.984 21.7667 105.937 21.6533 105.937 21.52V8.5C105.937 8.35333 105.984 8.23333 106.077 8.14C106.171 8.04667 106.284 8 106.417 8H112.217C113.297 8 114.177 8.16667 114.857 8.5C115.537 8.82 116.037 9.26667 116.357 9.84C116.691 10.4133 116.857 11.08 116.857 11.84C116.857 12.3467 116.764 12.7933 116.577 13.18C116.404 13.5533 116.184 13.86 115.917 14.1C115.664 14.34 115.411 14.5267 115.157 14.66C115.677 14.9 116.137 15.3 116.537 15.86C116.937 16.42 117.137 17.0867 117.137 17.86C117.137 18.66 116.957 19.3733 116.597 20C116.237 20.6267 115.704 21.12 114.997 21.48C114.291 21.8267 113.417 22 112.377 22H106.417ZM108.717 19.88H112.057C112.777 19.88 113.324 19.6867 113.697 19.3C114.071 18.9 114.257 18.42 114.257 17.86C114.257 17.2733 114.064 16.7867 113.677 16.4C113.304 16.0133 112.764 15.82 112.057 15.82H108.717V19.88ZM108.717 13.74H111.857C112.564 13.74 113.091 13.5733 113.437 13.24C113.797 12.8933 113.977 12.4467 113.977 11.9C113.977 11.34 113.797 10.9067 113.437 10.6C113.091 10.28 112.564 10.12 111.857 10.12H108.717V13.74ZM124.508 22.2C123.268 22.2 122.228 22.02 121.388 21.66C120.562 21.2867 119.928 20.8067 119.488 20.22C119.062 19.62 118.835 18.9933 118.808 18.34C118.808 18.22 118.848 18.12 118.928 18.04C119.008 17.96 119.108 17.92 119.228 17.92H121.008C121.182 17.92 121.308 17.96 121.388 18.04C121.482 18.1067 121.562 18.1933 121.628 18.3C121.708 18.5533 121.862 18.8067 122.088 19.06C122.315 19.3 122.622 19.5 123.008 19.66C123.408 19.82 123.908 19.9 124.508 19.9C125.468 19.9 126.182 19.74 126.648 19.42C127.128 19.1 127.368 18.6667 127.368 18.12C127.368 17.7333 127.242 17.4267 126.988 17.2C126.735 16.96 126.342 16.7467 125.808 16.56C125.288 16.36 124.595 16.1533 123.728 15.94C122.728 15.7 121.888 15.4133 121.208 15.08C120.542 14.7333 120.035 14.3 119.688 13.78C119.355 13.26 119.188 12.6 119.188 11.8C119.188 11.0267 119.395 10.34 119.808 9.74C120.235 9.14 120.835 8.66667 121.608 8.32C122.395 7.97333 123.328 7.8 124.408 7.8C125.275 7.8 126.042 7.92 126.708 8.16C127.375 8.38667 127.928 8.69333 128.368 9.08C128.808 9.45333 129.142 9.86 129.368 10.3C129.608 10.7267 129.735 11.1467 129.748 11.56C129.748 11.6667 129.708 11.7667 129.628 11.86C129.562 11.94 129.462 11.98 129.328 11.98H127.468C127.362 11.98 127.255 11.9533 127.148 11.9C127.042 11.8467 126.955 11.7467 126.888 11.6C126.808 11.1867 126.548 10.8333 126.108 10.54C125.668 10.2467 125.102 10.1 124.408 10.1C123.688 10.1 123.108 10.2333 122.668 10.5C122.228 10.7667 122.008 11.18 122.008 11.74C122.008 12.1133 122.115 12.4267 122.328 12.68C122.555 12.92 122.908 13.1333 123.388 13.32C123.882 13.5067 124.528 13.7067 125.328 13.92C126.462 14.1733 127.388 14.4667 128.108 14.8C128.828 15.1333 129.355 15.56 129.688 16.08C130.022 16.5867 130.188 17.2333 130.188 18.02C130.188 18.9 129.948 19.6533 129.468 20.28C129.002 20.8933 128.342 21.3667 127.488 21.7C126.635 22.0333 125.642 22.2 124.508 22.2Z" fill="#0B132A"/>
<defs>
<clipPath id="clip0_1_1572">
<rect width="30.6742" height="30" fill="white"/>
</clipPath>
</defs>
</svg>
