<svg width="132" height="33" viewBox="0 0 132 33" fill="none" xmlns="http://www.w3.org/2000/svg">
<path d="M39.8156 23.0065H49.0959V20.182H43.114V9.54297H39.8156V23.0065Z" fill="#0B132A"/>
<path d="M54.594 21.1237C53.2709 21.1237 52.5814 19.9562 52.5814 18.205C52.5814 16.4538 53.2709 15.2675 54.594 15.2675C55.9171 15.2675 56.6253 16.4538 56.6253 18.205C56.6253 19.9562 55.9171 21.1237 54.594 21.1237ZM54.6127 23.308C57.6875 23.308 59.7001 21.1048 59.7001 18.205C59.7001 15.3052 57.6875 13.1021 54.6127 13.1021C51.5565 13.1021 49.5066 15.3052 49.5066 18.205C49.5066 21.1048 51.5565 23.308 54.6127 23.308Z" fill="#0B132A"/>
<path d="M65.0225 26.3396C66.4388 26.3396 67.6874 26.0195 68.5259 25.2663C69.29 24.5696 69.7931 23.5151 69.7931 22.0652V13.3657H66.886V14.4014H66.8488C66.2897 13.5917 65.4325 13.0833 64.1653 13.0833C61.7986 13.0833 60.1587 15.0792 60.1587 17.9038C60.1587 20.8601 62.1527 22.4795 64.2957 22.4795C65.4511 22.4795 66.1779 22.0087 66.737 21.3685H66.8115V22.3288C66.8115 23.4963 66.2711 24.1742 64.9852 24.1742C63.9789 24.1742 63.4758 23.7411 63.3081 23.2327H60.3637C60.6618 25.2475 62.3949 26.3396 65.0225 26.3396ZM65.0039 20.201C63.8671 20.201 63.1217 19.2595 63.1217 17.8096C63.1217 16.3409 63.8671 15.3994 65.0039 15.3994C66.2711 15.3994 66.9419 16.4915 66.9419 17.7908C66.9419 19.1465 66.327 20.201 65.0039 20.201Z" fill="#0B132A"/>
<path d="M75.7708 21.1237C74.4477 21.1237 73.7582 19.9562 73.7582 18.205C73.7582 16.4538 74.4477 15.2675 75.7708 15.2675C77.0939 15.2675 77.8017 16.4538 77.8017 18.205C77.8017 19.9562 77.0939 21.1237 75.7708 21.1237ZM75.7894 23.308C78.8639 23.308 80.8765 21.1048 80.8765 18.205C80.8765 15.3052 78.8639 13.1021 75.7894 13.1021C72.7332 13.1021 70.6833 15.3052 70.6833 18.205C70.6833 21.1048 72.7332 23.308 75.7894 23.308Z" fill="#0B132A"/>
<path d="M81.7639 23.0065H84.8015V13.3655H81.7639V23.0065ZM81.7639 12.0285H84.8015V9.54297H81.7639V12.0285Z" fill="#0B132A"/>
<path d="M86.119 26.189H89.1566V22.0087H89.1938C89.7902 22.8184 90.666 23.308 91.896 23.308C94.3931 23.308 96.0516 21.312 96.0516 18.1862C96.0516 15.2864 94.5049 13.0833 91.9705 13.0833C90.666 13.0833 89.7343 13.667 89.082 14.5332H89.0261V13.3657H86.119V26.189ZM91.1133 20.9354C89.8088 20.9354 89.0634 19.8621 89.0634 18.2992C89.0634 16.7363 89.7343 15.55 91.0574 15.55C92.3618 15.55 92.9768 16.6421 92.9768 18.2992C92.9768 19.9374 92.2687 20.9354 91.1133 20.9354Z" fill="#0B132A"/>
<path d="M100.997 23.308C103.494 23.308 105.339 22.2158 105.339 20.1069C105.339 17.6401 103.364 17.207 101.687 16.9246C100.475 16.6986 99.3944 16.6045 99.3944 15.9266C99.3944 15.324 99.9721 15.0416 100.717 15.0416C101.556 15.0416 102.134 15.3052 102.246 16.1714H105.041C104.892 14.2695 103.438 13.0833 100.736 13.0833C98.4812 13.0833 96.6177 14.1377 96.6177 16.1714C96.6177 18.431 98.3881 18.8829 100.047 19.1654C101.314 19.3913 102.469 19.4855 102.469 20.3517C102.469 20.9731 101.891 21.312 100.978 21.312C99.9721 21.312 99.3385 20.8412 99.2266 19.8809H96.3568C96.45 22.0087 98.2017 23.308 100.997 23.308Z" fill="#0B132A"/>
<path d="M109.465 23.2889C110.788 23.2889 111.627 22.7617 112.316 21.8202H112.372V23.0065H115.279V13.3655H112.242V18.7509C112.242 19.8995 111.608 20.6904 110.565 20.6904C109.596 20.6904 109.13 20.1066 109.13 19.0522V13.3655H106.111V19.6924C106.111 21.839 107.266 23.2889 109.465 23.2889Z" fill="#0B132A"/>
<path d="M116.601 23.0067H119.639V17.6025C119.639 16.4538 120.198 15.6441 121.148 15.6441C122.061 15.6441 122.49 16.2467 122.49 17.2824V23.0067H125.527V17.6025C125.527 16.4538 126.068 15.6441 127.037 15.6441C127.95 15.6441 128.379 16.2467 128.379 17.2824V23.0067H131.416V16.7363C131.416 14.5708 130.335 13.0833 128.174 13.0833C126.944 13.0833 125.919 13.6105 125.173 14.778H125.136C124.652 13.7423 123.701 13.0833 122.453 13.0833C121.074 13.0833 120.16 13.7423 119.564 14.7403H119.508V13.3657H116.601V23.0067Z" fill="#0B132A"/>
<path fill-rule="evenodd" clip-rule="evenodd" d="M15.6081 31.6371C24.1849 31.6371 31.1375 24.6117 31.1375 15.9454C31.1375 7.27909 24.1849 0.253662 15.6081 0.253662C7.03148 0.253662 0.0787354 7.27909 0.0787354 15.9454C0.0787354 24.6117 7.03148 31.6371 15.6081 31.6371ZM18.0051 12.3775C19.3288 11.0399 19.3288 8.87122 18.0051 7.53358C16.6813 6.19595 14.535 6.19595 13.2112 7.53358C11.8875 8.87122 11.8875 11.0399 13.2112 12.3775L15.6081 14.7995L18.0051 12.3775ZM19.1391 18.3674C20.4629 19.705 22.6092 19.705 23.933 18.3674C25.2567 17.0297 25.2567 14.8611 23.933 13.5234C22.6092 12.1859 20.4629 12.1859 19.1391 13.5234L16.7422 15.9454L19.1391 18.3674ZM18.0051 24.3572C19.3288 23.0196 19.3288 20.8509 18.0051 19.5133L15.6081 17.0913L13.2112 19.5133C11.8875 20.8509 11.8875 23.0196 13.2112 24.3572C14.535 25.6949 16.6813 25.6949 18.0051 24.3572ZM7.28332 18.3674C5.95956 17.0297 5.95956 14.8611 7.28332 13.5234C8.60715 12.1859 10.7534 12.1859 12.0772 13.5234L14.4741 15.9454L12.0772 18.3674C10.7534 19.705 8.60715 19.705 7.28332 18.3674Z" fill="#2161D5"/>
</svg>
