<svg width="413" height="555" viewBox="0 0 413 555" fill="none" xmlns="http://www.w3.org/2000/svg">
<circle cx="255.679" cy="551.888" r="3.11194" transform="rotate(-180 255.679 551.888)" fill="white" fill-opacity="0.3"/>
<circle cx="210.037" cy="551.888" r="3.11194" transform="rotate(-180 210.037 551.888)" fill="white" fill-opacity="0.3"/>
<circle cx="164.396" cy="551.888" r="3.11194" transform="rotate(-180 164.396 551.888)" fill="white" fill-opacity="0.3"/>
<circle cx="118.754" cy="551.888" r="3.11194" transform="rotate(-180 118.754 551.888)" fill="white" fill-opacity="0.3"/>
<circle cx="73.1119" cy="551.888" r="3.11194" transform="rotate(-180 73.1119 551.888)" fill="white" fill-opacity="0.3"/>
<circle cx="255.679" cy="506.246" r="3.11194" transform="rotate(-180 255.679 506.246)" fill="white" fill-opacity="0.3"/>
<circle cx="210.037" cy="506.246" r="3.11194" transform="rotate(-180 210.037 506.246)" fill="white" fill-opacity="0.3"/>
<circle cx="164.396" cy="506.246" r="3.11194" transform="rotate(-180 164.396 506.246)" fill="white" fill-opacity="0.3"/>
<circle cx="118.754" cy="506.246" r="3.11194" transform="rotate(-180 118.754 506.246)" fill="white" fill-opacity="0.3"/>
<circle cx="73.1119" cy="506.246" r="3.11194" transform="rotate(-180 73.1119 506.246)" fill="white" fill-opacity="0.3"/>
<circle cx="255.679" cy="460.604" r="3.11194" transform="rotate(-180 255.679 460.604)" fill="white" fill-opacity="0.3"/>
<circle cx="210.037" cy="460.604" r="3.11194" transform="rotate(-180 210.037 460.604)" fill="white" fill-opacity="0.3"/>
<circle cx="164.396" cy="460.604" r="3.11194" transform="rotate(-180 164.396 460.604)" fill="white" fill-opacity="0.3"/>
<circle cx="118.754" cy="460.604" r="3.11194" transform="rotate(-180 118.754 460.604)" fill="white" fill-opacity="0.3"/>
<circle cx="73.1119" cy="460.604" r="3.11194" transform="rotate(-180 73.1119 460.604)" fill="white" fill-opacity="0.3"/>
<circle cx="255.679" cy="414.963" r="3.11194" transform="rotate(-180 255.679 414.963)" fill="white" fill-opacity="0.3"/>
<circle cx="210.037" cy="414.963" r="3.11194" transform="rotate(-180 210.037 414.963)" fill="white" fill-opacity="0.3"/>
<circle cx="164.396" cy="414.963" r="3.11194" transform="rotate(-180 164.396 414.963)" fill="white" fill-opacity="0.3"/>
<circle cx="118.754" cy="414.963" r="3.11194" transform="rotate(-180 118.754 414.963)" fill="white" fill-opacity="0.3"/>
<circle cx="73.1119" cy="414.963" r="3.11194" transform="rotate(-180 73.1119 414.963)" fill="white" fill-opacity="0.3"/>
<circle cx="255.679" cy="369.321" r="3.11194" transform="rotate(-180 255.679 369.321)" fill="white" fill-opacity="0.3"/>
<circle cx="210.037" cy="369.321" r="3.11194" transform="rotate(-180 210.037 369.321)" fill="white" fill-opacity="0.3"/>
<circle cx="164.396" cy="369.321" r="3.11194" transform="rotate(-180 164.396 369.321)" fill="white" fill-opacity="0.3"/>
<circle cx="118.754" cy="369.321" r="3.11194" transform="rotate(-180 118.754 369.321)" fill="white" fill-opacity="0.3"/>
<circle cx="73.1119" cy="369.321" r="3.11194" transform="rotate(-180 73.1119 369.321)" fill="white" fill-opacity="0.3"/>
<circle cx="255.679" cy="323.679" r="3.11194" transform="rotate(-180 255.679 323.679)" fill="white" fill-opacity="0.3"/>
<circle cx="210.037" cy="323.679" r="3.11194" transform="rotate(-180 210.037 323.679)" fill="white" fill-opacity="0.3"/>
<circle cx="164.396" cy="323.679" r="3.11194" transform="rotate(-180 164.396 323.679)" fill="white" fill-opacity="0.3"/>
<circle cx="118.754" cy="323.679" r="3.11194" transform="rotate(-180 118.754 323.679)" fill="white" fill-opacity="0.3"/>
<circle cx="73.1119" cy="323.679" r="3.11194" transform="rotate(-180 73.1119 323.679)" fill="white" fill-opacity="0.3"/>
<circle cx="255.679" cy="278.037" r="3.11194" transform="rotate(-180 255.679 278.037)" fill="white" fill-opacity="0.3"/>
<circle cx="210.037" cy="278.037" r="3.11194" transform="rotate(-180 210.037 278.037)" fill="white" fill-opacity="0.3"/>
<circle cx="164.396" cy="278.037" r="3.11194" transform="rotate(-180 164.396 278.037)" fill="white" fill-opacity="0.3"/>
<circle cx="118.754" cy="278.037" r="3.11194" transform="rotate(-180 118.754 278.037)" fill="white" fill-opacity="0.3"/>
<circle cx="73.1119" cy="278.037" r="3.11194" transform="rotate(-180 73.1119 278.037)" fill="white" fill-opacity="0.3"/>
<circle cx="255.679" cy="232.396" r="3.11194" transform="rotate(-180 255.679 232.396)" fill="white" fill-opacity="0.3"/>
<circle cx="210.037" cy="232.396" r="3.11194" transform="rotate(-180 210.037 232.396)" fill="white" fill-opacity="0.3"/>
<circle cx="164.396" cy="232.396" r="3.11194" transform="rotate(-180 164.396 232.396)" fill="white" fill-opacity="0.3"/>
<circle cx="118.754" cy="232.396" r="3.11194" transform="rotate(-180 118.754 232.396)" fill="white" fill-opacity="0.3"/>
<circle cx="73.1119" cy="232.396" r="3.11194" transform="rotate(-180 73.1119 232.396)" fill="white" fill-opacity="0.3"/>
<circle cx="255.679" cy="186.754" r="3.11194" transform="rotate(-180 255.679 186.754)" fill="white" fill-opacity="0.3"/>
<circle cx="210.037" cy="186.754" r="3.11194" transform="rotate(-180 210.037 186.754)" fill="white" fill-opacity="0.3"/>
<circle cx="164.396" cy="186.754" r="3.11194" transform="rotate(-180 164.396 186.754)" fill="white" fill-opacity="0.3"/>
<circle cx="118.754" cy="186.754" r="3.11194" transform="rotate(-180 118.754 186.754)" fill="white" fill-opacity="0.3"/>
<circle cx="73.1119" cy="186.754" r="3.11194" transform="rotate(-180 73.1119 186.754)" fill="white" fill-opacity="0.3"/>
<circle cx="255.679" cy="141.112" r="3.11194" transform="rotate(-180 255.679 141.112)" fill="white" fill-opacity="0.3"/>
<circle cx="210.037" cy="141.112" r="3.11194" transform="rotate(-180 210.037 141.112)" fill="white" fill-opacity="0.3"/>
<circle cx="164.396" cy="141.112" r="3.11194" transform="rotate(-180 164.396 141.112)" fill="white" fill-opacity="0.3"/>
<circle cx="118.754" cy="141.112" r="3.11194" transform="rotate(-180 118.754 141.112)" fill="white" fill-opacity="0.3"/>
<circle cx="73.1119" cy="141.112" r="3.11194" transform="rotate(-180 73.1119 141.112)" fill="white" fill-opacity="0.3"/>
<circle cx="239" cy="215" r="171.5" stroke="white" stroke-opacity="0.3" stroke-width="5"/>
<circle cx="32.5" cy="32.5" r="30" stroke="white" stroke-opacity="0.5" stroke-width="5"/>
</svg>
