<svg width="473" height="639" viewBox="0 0 473 639" fill="none" xmlns="http://www.w3.org/2000/svg">
<circle cx="3.11194" cy="635.679" r="3.11194" transform="rotate(-90 3.11194 635.679)" fill="white" fill-opacity="0.3"/>
<circle cx="3.11194" cy="590.037" r="3.11194" transform="rotate(-90 3.11194 590.037)" fill="white" fill-opacity="0.3"/>
<circle cx="3.11194" cy="544.396" r="3.11194" transform="rotate(-90 3.11194 544.396)" fill="white" fill-opacity="0.3"/>
<circle cx="3.11194" cy="498.754" r="3.11194" transform="rotate(-90 3.11194 498.754)" fill="white" fill-opacity="0.3"/>
<circle cx="3.11194" cy="453.112" r="3.11194" transform="rotate(-90 3.11194 453.112)" fill="white" fill-opacity="0.3"/>
<circle cx="48.7537" cy="635.679" r="3.11194" transform="rotate(-90 48.7537 635.679)" fill="white" fill-opacity="0.3"/>
<circle cx="48.7537" cy="590.037" r="3.11194" transform="rotate(-90 48.7537 590.037)" fill="white" fill-opacity="0.3"/>
<circle cx="48.7537" cy="544.396" r="3.11194" transform="rotate(-90 48.7537 544.396)" fill="white" fill-opacity="0.3"/>
<circle cx="48.7537" cy="498.754" r="3.11194" transform="rotate(-90 48.7537 498.754)" fill="white" fill-opacity="0.3"/>
<circle cx="48.7537" cy="453.112" r="3.11194" transform="rotate(-90 48.7537 453.112)" fill="white" fill-opacity="0.3"/>
<circle cx="94.3956" cy="635.679" r="3.11194" transform="rotate(-90 94.3956 635.679)" fill="white" fill-opacity="0.3"/>
<circle cx="94.3956" cy="590.037" r="3.11194" transform="rotate(-90 94.3956 590.037)" fill="white" fill-opacity="0.3"/>
<circle cx="94.3955" cy="544.396" r="3.11194" transform="rotate(-90 94.3955 544.396)" fill="white" fill-opacity="0.3"/>
<circle cx="94.3955" cy="498.754" r="3.11194" transform="rotate(-90 94.3955 498.754)" fill="white" fill-opacity="0.3"/>
<circle cx="94.3955" cy="453.112" r="3.11194" transform="rotate(-90 94.3955 453.112)" fill="white" fill-opacity="0.3"/>
<circle cx="140.037" cy="635.679" r="3.11194" transform="rotate(-90 140.037 635.679)" fill="white" fill-opacity="0.3"/>
<circle cx="140.037" cy="590.037" r="3.11194" transform="rotate(-90 140.037 590.037)" fill="white" fill-opacity="0.3"/>
<circle cx="140.037" cy="544.396" r="3.11194" transform="rotate(-90 140.037 544.396)" fill="white" fill-opacity="0.3"/>
<circle cx="140.037" cy="498.754" r="3.11194" transform="rotate(-90 140.037 498.754)" fill="white" fill-opacity="0.3"/>
<circle cx="140.037" cy="453.112" r="3.11194" transform="rotate(-90 140.037 453.112)" fill="white" fill-opacity="0.3"/>
<circle cx="185.679" cy="635.679" r="3.11194" transform="rotate(-90 185.679 635.679)" fill="white" fill-opacity="0.3"/>
<circle cx="185.679" cy="590.037" r="3.11194" transform="rotate(-90 185.679 590.037)" fill="white" fill-opacity="0.3"/>
<circle cx="185.679" cy="544.396" r="3.11194" transform="rotate(-90 185.679 544.396)" fill="white" fill-opacity="0.3"/>
<circle cx="185.679" cy="498.754" r="3.11194" transform="rotate(-90 185.679 498.754)" fill="white" fill-opacity="0.3"/>
<circle cx="185.679" cy="453.112" r="3.11194" transform="rotate(-90 185.679 453.112)" fill="white" fill-opacity="0.3"/>
<circle cx="231.321" cy="635.679" r="3.11194" transform="rotate(-90 231.321 635.679)" fill="white" fill-opacity="0.3"/>
<circle cx="231.321" cy="590.037" r="3.11194" transform="rotate(-90 231.321 590.037)" fill="white" fill-opacity="0.3"/>
<circle cx="231.321" cy="544.396" r="3.11194" transform="rotate(-90 231.321 544.396)" fill="white" fill-opacity="0.3"/>
<circle cx="231.321" cy="498.754" r="3.11194" transform="rotate(-90 231.321 498.754)" fill="white" fill-opacity="0.3"/>
<circle cx="231.321" cy="453.112" r="3.11194" transform="rotate(-90 231.321 453.112)" fill="white" fill-opacity="0.3"/>
<circle cx="276.963" cy="635.679" r="3.11194" transform="rotate(-90 276.963 635.679)" fill="white" fill-opacity="0.3"/>
<circle cx="276.963" cy="590.037" r="3.11194" transform="rotate(-90 276.963 590.037)" fill="white" fill-opacity="0.3"/>
<circle cx="276.963" cy="544.395" r="3.11194" transform="rotate(-90 276.963 544.395)" fill="white" fill-opacity="0.3"/>
<circle cx="276.963" cy="498.754" r="3.11194" transform="rotate(-90 276.963 498.754)" fill="white" fill-opacity="0.3"/>
<circle cx="276.963" cy="453.112" r="3.11194" transform="rotate(-90 276.963 453.112)" fill="white" fill-opacity="0.3"/>
<circle cx="322.605" cy="635.679" r="3.11194" transform="rotate(-90 322.605 635.679)" fill="white" fill-opacity="0.3"/>
<circle cx="322.605" cy="590.037" r="3.11194" transform="rotate(-90 322.605 590.037)" fill="white" fill-opacity="0.3"/>
<circle cx="322.604" cy="544.395" r="3.11194" transform="rotate(-90 322.604 544.395)" fill="white" fill-opacity="0.3"/>
<circle cx="322.605" cy="498.754" r="3.11194" transform="rotate(-90 322.605 498.754)" fill="white" fill-opacity="0.3"/>
<circle cx="322.605" cy="453.112" r="3.11194" transform="rotate(-90 322.605 453.112)" fill="white" fill-opacity="0.3"/>
<circle cx="368.246" cy="635.679" r="3.11194" transform="rotate(-90 368.246 635.679)" fill="white" fill-opacity="0.3"/>
<circle cx="368.246" cy="590.037" r="3.11194" transform="rotate(-90 368.246 590.037)" fill="white" fill-opacity="0.3"/>
<circle cx="368.246" cy="544.395" r="3.11194" transform="rotate(-90 368.246 544.395)" fill="white" fill-opacity="0.3"/>
<circle cx="368.246" cy="498.754" r="3.11194" transform="rotate(-90 368.246 498.754)" fill="white" fill-opacity="0.3"/>
<circle cx="368.246" cy="453.112" r="3.11194" transform="rotate(-90 368.246 453.112)" fill="white" fill-opacity="0.3"/>
<circle cx="413.888" cy="635.679" r="3.11194" transform="rotate(-90 413.888 635.679)" fill="white" fill-opacity="0.3"/>
<circle cx="413.888" cy="590.037" r="3.11194" transform="rotate(-90 413.888 590.037)" fill="white" fill-opacity="0.3"/>
<circle cx="413.888" cy="544.395" r="3.11194" transform="rotate(-90 413.888 544.395)" fill="white" fill-opacity="0.3"/>
<circle cx="413.888" cy="498.754" r="3.11194" transform="rotate(-90 413.888 498.754)" fill="white" fill-opacity="0.3"/>
<circle cx="413.888" cy="453.112" r="3.11194" transform="rotate(-90 413.888 453.112)" fill="white" fill-opacity="0.3"/>
<circle cx="312.5" cy="179.5" r="158" stroke="white" stroke-opacity="0.3" stroke-width="5"/>
<circle cx="80.5" cy="32.5" r="30" stroke="white" stroke-opacity="0.3" stroke-width="5"/>
</svg>
